<?xml version="1.0" standalone="no"?>
<!DOCTYPE svg PUBLIC "-//W3C//DTD SVG 20010904//EN"
 "http://www.w3.org/TR/2001/REC-SVG-20010904/DTD/svg10.dtd">
<svg version="1.0" xmlns="http://www.w3.org/2000/svg"
 width="287.000000pt" height="270.000000pt" viewBox="0 0 287.000000 270.000000"
 preserveAspectRatio="xMidYMid meet">

<g transform="translate(0.000000,270.000000) scale(0.100000,-0.100000)"
fill="#000000" stroke="none">
<path d="M1366 2542 c-6 -17 -13 -22 -24 -17 -44 18 -46 17 -24 -7 12 -13 22
-27 22 -31 0 -4 -10 -8 -22 -8 -17 -1 -19 -2 -5 -6 9 -2 17 -12 17 -22 0 -14
6 -17 30 -13 21 3 30 0 30 -10 0 -31 -21 -37 -119 -31 -79 5 -111 2 -179 -16
-46 -12 -94 -29 -108 -37 -31 -21 -32 -59 -1 -75 12 -6 75 -50 141 -96 118
-84 254 -163 281 -163 25 0 18 -55 -11 -90 -35 -40 -77 -62 -141 -71 -67 -9
-112 -43 -113 -84 -1 -53 -20 -119 -46 -158 -14 -21 -22 -42 -19 -46 2 -5 -15
-54 -40 -110 -25 -56 -53 -129 -62 -162 -25 -90 -20 -93 166 -98 146 -3 149
-3 156 19 4 12 5 23 3 24 -1 1 -39 10 -82 19 -82 17 -123 37 -133 64 -7 19 19
71 70 135 29 37 44 48 66 48 34 0 53 -20 81 -85 56 -128 31 -240 -75 -331 -79
-68 -120 -149 -155 -304 -11 -47 -19 -103 -19 -125 l1 -40 15 35 c68 159 200
298 362 383 104 54 207 87 270 86 72 -1 88 -14 18 -15 -117 -1 -313 -86 -426
-185 -98 -86 -180 -214 -218 -341 -12 -43 -33 -178 -27 -178 1 0 19 35 40 77
84 169 247 297 489 383 89 31 366 102 373 95 6 -5 -155 -85 -283 -140 -340
-146 -458 -227 -562 -387 -41 -63 -102 -192 -117 -248 -6 -22 -5 -21 10 5 31
55 97 140 149 190 90 89 194 149 445 260 85 37 178 82 205 100 58 37 145 126
169 174 27 51 30 29 6 -43 -59 -177 -169 -278 -471 -431 -163 -83 -399 -224
-399 -239 0 -3 37 15 83 39 45 24 172 83 282 130 294 127 370 172 454 268 51
60 51 59 101 197 36 98 83 203 66 147 -3 -10 -19 -78 -35 -152 -33 -149 -54
-197 -114 -262 -61 -66 -142 -121 -317 -212 -85 -44 -152 -81 -149 -81 3 0 62
24 131 54 390 168 477 255 503 501 9 81 19 70 34 -38 26 -190 -45 -378 -215
-567 l-59 -64 60 46 c140 107 249 234 314 364 69 140 74 221 21 342 -20 44
-20 45 -1 28 31 -28 89 -148 106 -217 19 -83 19 -225 -1 -301 -8 -33 -29 -86
-46 -117 l-31 -56 54 51 c30 28 77 67 104 87 104 74 135 122 135 206 0 97 -90
217 -259 345 -128 97 -153 109 -226 110 -46 0 -76 -7 -132 -32 -39 -18 -80
-32 -90 -31 -11 0 -6 5 14 12 55 21 48 27 -28 27 -86 0 -218 -29 -294 -65 -73
-35 -187 -110 -271 -179 -66 -54 -65 -53 19 26 159 152 320 234 483 245 l83 6
-16 24 c-9 13 -36 35 -60 49 -50 30 -133 121 -133 146 0 31 41 127 76 179 40
57 76 137 71 153 -2 6 -9 -5 -16 -25 -23 -71 -89 -110 -181 -108 -43 1 -42 1
24 15 79 15 121 48 152 116 17 38 18 39 26 17 12 -32 1 -74 -38 -147 l-34 -63
7 -115 6 -116 39 -24 c21 -13 52 -43 69 -67 20 -27 41 -44 60 -48 16 -4 28 -4
27 0 -63 122 -102 215 -105 252 -6 54 13 262 29 329 6 25 17 58 25 73 8 16 12
32 8 35 -9 9 -124 -17 -190 -44 -80 -33 -112 -51 -162 -91 -42 -34 -63 -36
-63 -8 0 24 -112 131 -166 158 -29 14 -73 31 -100 38 -65 16 -72 24 -36 43 21
11 61 16 119 17 61 1 76 4 49 8 l-39 6 39 25 c36 23 55 50 68 92 5 16 9 16 38
4 20 -8 41 -10 53 -5 33 13 65 10 65 -6 0 -19 56 -82 81 -90 11 -4 17 -10 14
-15 -7 -11 31 -20 85 -20 51 0 81 -19 104 -65 11 -21 16 -25 16 -12 0 11 -15
34 -34 53 -28 28 -42 34 -75 34 -49 0 -106 27 -150 71 -48 48 -39 63 44 70
119 10 186 34 250 90 38 34 47 74 18 83 -10 3 -52 11 -93 17 -41 6 -92 20
-112 30 -48 25 -52 24 -66 -8 -10 -25 -11 -25 -5 -3 3 14 8 30 10 36 2 7 -17
1 -44 -13 -56 -29 -124 -28 -186 2 -41 19 -141 104 -133 113 3 2 21 -9 41 -27
20 -17 59 -43 87 -57 44 -22 61 -25 117 -22 37 2 84 13 106 24 36 17 40 23 43
62 6 78 -54 138 -163 167 -65 17 -89 13 -122 -18 -18 -16 -23 -17 -23 -6 0 9
7 24 15 35 20 27 19 36 -5 29 -15 -5 -22 -1 -29 17 l-8 23 -7 -23z m160 -225
c17 -9 62 -22 100 -29 63 -12 66 -13 30 -16 -89 -8 -183 37 -230 109 -39 58
-31 59 22 2 26 -28 61 -58 78 -66z m-8 -334 c-10 -2 -26 -2 -35 0 -10 3 -2 5
17 5 19 0 27 -2 18 -5z m-260 -283 c102 -48 143 -78 183 -133 45 -61 35 -63
-24 -4 -45 45 -183 137 -205 137 -4 0 -20 9 -37 20 -49 33 -9 23 83 -20z m515
-53 c-122 -65 -198 -128 -307 -257 -48 -57 -36 -33 21 41 69 92 159 166 258
215 115 56 135 57 28 1z m-535 -103 c70 -18 135 -49 153 -71 13 -17 13 -17
-13 0 -15 9 -83 33 -149 52 -67 19 -125 38 -128 41 -8 8 68 -4 137 -22z m452
-393 c18 -5 2 -9 -55 -14 -91 -7 -167 -31 -243 -76 -64 -38 -78 -40 -31 -5
104 78 245 119 329 95z"/>
<path d="M1578 1853 c7 -3 16 -2 19 1 4 3 -2 6 -13 5 -11 0 -14 -3 -6 -6z"/>
<path d="M1618 1853 c6 -2 18 -2 25 0 6 3 1 5 -13 5 -14 0 -19 -2 -12 -5z"/>
<path d="M1214 1121 c-5 -5 -40 -19 -79 -31 -58 -19 -104 -24 -265 -29 -216
-8 -258 -17 -365 -82 -65 -39 -174 -135 -207 -182 -20 -29 -18 -28 17 7 53 53
149 122 216 157 94 47 176 61 314 54 93 -5 135 -3 188 9 88 21 212 84 196 100
-3 3 -10 2 -15 -3z"/>
<path d="M1009 895 c-59 -31 -127 -107 -135 -152 -8 -41 1 -126 15 -151 8 -13
10 0 11 51 0 87 23 132 107 215 35 34 60 62 56 62 -5 -1 -29 -12 -54 -25z"/>
<path d="M910 535 c1 -6 7 -21 16 -35 l15 -25 -7 25 c-7 26 -24 52 -24 35z"/>
</g>
</svg>
